<svg width="36" height="36" viewBox="0 0 36 36" fill="none" xmlns="http://www.w3.org/2000/svg">
<circle cx="18" cy="18" r="18" fill="#FFF200"/>
<path d="M18.75 10C18.75 9.58579 18.4142 9.25 18 9.25C17.5858 9.25 17.25 9.58579 17.25 10L18.75 10ZM17.4697 26.5009C17.7626 26.7938 18.2374 26.7938 18.5303 26.5009L23.3033 21.7279C23.5962 21.435 23.5962 20.9602 23.3033 20.6673C23.0104 20.3744 22.5355 20.3744 22.2426 20.6673L18 24.9099L13.7574 20.6673C13.4645 20.3744 12.9896 20.3744 12.6967 20.6673C12.4038 20.9602 12.4038 21.435 12.6967 21.7279L17.4697 26.5009ZM17.25 10L17.25 25.9706L18.75 25.9706L18.75 10L17.25 10Z" fill="black"/>
</svg>
