<svg width="47" height="55" viewBox="0 0 47 55" fill="none" xmlns="http://www.w3.org/2000/svg">
<path d="M26.0261 6.38432C23.3591 8.70872 20.5107 10.8164 17.5081 12.6873L17.0033 12.5C20.1948 9.36943 23.1481 6.00503 25.8387 2.43481H26.2134C28.8317 6.01472 31.7435 9.3705 34.9186 12.4674L34.4789 12.6547C31.4771 10.825 28.6479 8.7262 26.0261 6.38432Z" fill="white"/>
<path d="M46.5554 40.2769C45.5944 51.0586 44.1124 55 39.7964 55C37.2068 55 35.5293 53.4935 35.0081 49.6498C34.8919 48.8896 34.8266 48.1224 34.8127 47.3534H34.7231C34.487 44.6906 34.5033 42.3534 34.5114 41.8892V41.8078C34.5114 39.8046 34.5114 37.443 34.5114 34.6661C34.5114 23.013 33.4691 19.3811 25.1059 19.3811C18.1759 19.3811 10.8551 23.0782 10.8551 32.4104C10.8551 52.2068 11.1808 52.9234 13.3469 53.2492L20.6026 54.0635V54.7964H0V54.0635L3.0619 53.7541C7.00326 53.1922 7.13356 52.9397 7.13356 37.0114C7.13356 5.63518 6.88926 5.15473 3.92509 4.82899L0.0488579 4.43811V3.70521C6.24593 2.81759 8.75408 2.0114 10.4397 0L10.9202 0.171012C10.8306 11.9137 10.5945 20.5293 10.5131 27.8583L11.0016 27.9479C12.443 21.987 18.07 16.5961 27.2883 16.5961C35.3339 16.5961 38.3143 19.9919 38.3143 26.5798C38.3143 30.285 38.1922 34.5765 38.1596 38.4446V38.5016L38.2981 41.9218C38.4284 50.8795 39.2753 52.1498 41.2459 52.1498C43.6889 52.1498 44.943 49.8941 45.7492 40.2361L46.5554 40.2769Z" fill="white"/>
</svg>
