<svg width="56" height="12" viewBox="0 0 56 12" fill="none" xmlns="http://www.w3.org/2000/svg">
<path d="M1.1868 5.5C0.772585 5.5 0.436798 5.83579 0.436798 6.25C0.436798 6.66421 0.772585 7 1.1868 7V5.5ZM55.7171 6.78033C56.01 6.48744 56.01 6.01256 55.7171 5.71967L50.9442 0.946699C50.6513 0.653806 50.1764 0.653806 49.8835 0.946699C49.5906 1.23959 49.5906 1.71447 49.8835 2.00736L54.1261 6.25L49.8835 10.4926C49.5906 10.7855 49.5906 11.2604 49.8835 11.5533C50.1764 11.8462 50.6513 11.8462 50.9442 11.5533L55.7171 6.78033ZM1.1868 7H55.1868V5.5H1.1868V7Z" fill="white"/>
</svg>
