<svg width="357" height="116" viewBox="0 0 357 116" fill="none" xmlns="http://www.w3.org/2000/svg">
<path d="M174.867 23.7072C160.93 23.7072 146.945 23.2687 133.052 24.5556C116.928 26.0492 100.984 28.323 84.9455 30.4945C69.5977 32.5725 51.4841 36.2778 37.487 43.4093C30.2892 47.0765 22.0464 51.6644 20.1873 60.189C18.3565 68.5841 20.7641 75.5873 28.3283 79.5139C43.8602 87.5766 59.7239 90.2141 76.9895 92.4286C105.816 96.126 135.391 96.8573 164.413 98.179C182.001 98.98 199.726 98.3675 217.33 98.3675C231.975 98.3675 246.837 99.1101 261.458 98.179C273.007 97.4435 284.659 94.4719 296.057 92.4286C305.395 90.7547 314.213 87.4728 323.117 84.3687C338.459 79.0205 367.994 51.2465 349.714 34.6895C340.419 26.2705 326.394 25.544 314.745 23.2359C300.364 20.3865 285.992 18.8261 271.449 17.3441C239.731 14.1121 208.027 14.3747 176.162 14.3747C173.84 14.3747 170.92 13.9016 168.622 14.4218C166.635 14.8719 164.98 16.0715 162.84 16.0715C159.615 16.0715 156.324 18.6168 153.219 18.6168" stroke="#FFF200" stroke-width="1.5" stroke-linecap="round"/>
<path d="M162.172 26.6528C147.69 27.9817 133.119 28.8814 118.795 31.4795C102.171 34.4948 85.8027 38.2649 69.326 41.9429C53.5594 45.4624 35.061 50.8559 21.1398 59.2468C13.981 63.5617 5.81683 68.8873 4.63046 77.4993C3.4621 85.9805 6.57627 92.6803 14.7799 95.8443C31.6246 102.341 48.3396 103.438 66.4745 103.983C96.7522 104.893 127.549 102.796 157.822 101.336C176.168 100.452 194.533 98.1558 212.826 96.4772C228.043 95.0808 243.553 94.3983 258.664 92.0829C270.601 90.2539 282.449 86.2026 294.114 83.094C303.671 80.5472 312.547 76.4592 321.528 72.5388C337.003 65.784 365.264 35.4865 344.822 20.847C334.427 13.403 319.789 14.0216 307.482 12.8486C292.289 11.4005 277.219 11.2269 261.978 11.1473C228.736 10.9738 195.814 14.2567 162.702 17.2951C160.29 17.5165 157.213 17.3269 154.872 18.0607C152.846 18.6955 151.231 20.0403 149.008 20.2443C145.656 20.5519 142.458 23.3842 139.233 23.6802" stroke="#FFF200" stroke-width="1.5" stroke-linecap="round"/>
</svg>
