<svg width="80" height="80" viewBox="0 0 80 80" fill="none" xmlns="http://www.w3.org/2000/svg">
<circle cx="40" cy="40" r="39" stroke="white" stroke-width="2"/>
<path d="M41 18C41 17.4477 40.5523 17 40 17C39.4477 17 39 17.4477 39 18H41ZM39.2929 62.7071C39.6834 63.0976 40.3166 63.0976 40.7071 62.7071L47.0711 56.3431C47.4616 55.9526 47.4616 55.3195 47.0711 54.9289C46.6805 54.5384 46.0474 54.5384 45.6569 54.9289L40 60.5858L34.3431 54.9289C33.9526 54.5384 33.3195 54.5384 32.9289 54.9289C32.5384 55.3195 32.5384 55.9526 32.9289 56.3431L39.2929 62.7071ZM39 18V62H41V18H39Z" fill="white"/>
</svg>
